<svg height="878" width="720" xmlns="http://www.w3.org/2000/svg">
<rect height="878" fill="#555" width="720"></rect>
<text fill="#7f7" font-family="Courier New" font-size="12" xml:space="preserve">
<tspan x="10" y="26">└─┬ jsx-control-statements@3.1.5 </tspan>
<tspan x="10" y="42">  ├─┬ babel-core@6.24.0 </tspan>
<tspan x="10" y="58">  │ ├─┬ babel-code-frame@6.22.0 </tspan>
<tspan x="10" y="74">  │ │ ├─┬ chalk@1.1.3 </tspan>
<tspan x="10" y="90">  │ │ │ ├── ansi-styles@2.2.1 </tspan>
<tspan x="10" y="106">  │ │ │ ├── escape-string-regexp@1.0.5 </tspan>
<tspan x="10" y="122">  │ │ │ ├─┬ has-ansi@2.0.0 </tspan>
<tspan x="10" y="138">  │ │ │ │ └── ansi-regex@2.1.1 </tspan>
<tspan x="10" y="154">  │ │ │ ├── strip-ansi@3.0.1 </tspan>
<tspan x="10" y="170">  │ │ │ └── supports-color@2.0.0 </tspan>
<tspan x="10" y="186">  │ │ ├── esutils@2.0.2 </tspan>
<tspan x="10" y="202">  │ │ └── js-tokens@3.0.1 </tspan>
<tspan x="10" y="218">  │ ├─┬ babel-generator@6.24.0 </tspan>
<tspan x="10" y="234">  │ │ ├─┬ detect-indent@4.0.0 </tspan>
<tspan x="10" y="250">  │ │ │ └─┬ repeating@2.0.1 </tspan>
<tspan x="10" y="266">  │ │ │   └─┬ is-finite@1.0.2 </tspan>
<tspan x="10" y="282">  │ │ │     └── number-is-nan@1.0.1 </tspan>
<tspan x="10" y="298">  │ │ ├── jsesc@1.3.0 </tspan>
<tspan x="10" y="314">  │ │ └── trim-right@1.0.1 </tspan>
<tspan x="10" y="330">  │ ├── babel-helpers@6.23.0 </tspan>
<tspan x="10" y="346">  │ ├── babel-messages@6.23.0 </tspan>
<tspan x="10" y="362">  │ ├─┬ babel-register@6.24.0 </tspan>
<tspan x="10" y="378">  │ │ ├── core-js@2.4.1 </tspan>
<tspan x="10" y="394">  │ │ ├─┬ home-or-tmp@2.0.0 </tspan>
<tspan x="10" y="410">  │ │ │ ├── os-homedir@1.0.2 </tspan>
<tspan x="10" y="426">  │ │ │ └── os-tmpdir@1.0.2 </tspan>
<tspan x="10" y="442">  │ │ ├─┬ mkdirp@0.5.1 </tspan>
<tspan x="10" y="458">  │ │ │ └── minimist@0.0.8 </tspan>
<tspan x="10" y="474">  │ │ └── source-map-support@0.4.14 </tspan>
<tspan x="10" y="490">  │ ├─┬ babel-runtime@6.23.0 </tspan>
<tspan x="10" y="506">  │ │ └── regenerator-runtime@0.10.3 </tspan>
<tspan x="10" y="522">  │ ├── babel-template@6.23.0 </tspan>
<tspan x="10" y="538">  │ ├─┬ babel-traverse@6.23.1 </tspan>
<tspan x="10" y="554">  │ │ ├── globals@9.17.0 </tspan>
<tspan x="10" y="570">  │ │ └─┬ invariant@2.2.2 </tspan>
<tspan x="10" y="586">  │ │   └── loose-envify@1.3.1 </tspan>
<tspan x="10" y="602">  │ ├─┬ babel-types@6.23.0 </tspan>
<tspan x="10" y="618">  │ │ └── to-fast-properties@1.0.2 </tspan>
<tspan x="10" y="634">  │ ├── babylon@6.16.1 </tspan>
<tspan x="10" y="650">  │ ├── convert-source-map@1.5.0 </tspan>
<tspan x="10" y="666">  │ ├─┬ debug@2.6.3 </tspan>
<tspan x="10" y="682">  │ │ └── ms@0.7.2 </tspan>
<tspan x="10" y="698">  │ ├── json5@0.5.1 </tspan>
<tspan x="10" y="714">  │ ├── lodash@4.17.4 </tspan>
<tspan x="10" y="730">  │ ├─┬ minimatch@3.0.3 </tspan>
<tspan x="10" y="746">  │ │ └─┬ brace-expansion@1.1.6 </tspan>
<tspan x="10" y="762">  │ │   ├── balanced-match@0.4.2 </tspan>
<tspan x="10" y="778">  │ │   └── concat-map@0.0.1 </tspan>
<tspan x="10" y="794">  │ ├── path-is-absolute@1.0.1 </tspan>
<tspan x="10" y="810">  │ ├── private@0.1.7 </tspan>
<tspan x="10" y="826">  │ ├── slash@1.0.0 </tspan>
<tspan x="10" y="842">  │ └── source-map@0.5.6 </tspan>
<tspan x="10" y="858">  └── babel-plugin-syntax-jsx@6.18.0</tspan>
</text>
</svg>
